<svg width="35" height="35" viewBox="0 0 35 35" fill="none" xmlns="http://www.w3.org/2000/svg">
<g clip-path="url(#clip0_1_2)">
<path d="M27.7542 13.5855C27.7542 13.5855 9.53718 31.8024 9.3402 31.9995C9.14321 32.1965 8.90935 32.3529 8.65195 32.4595C8.39456 32.5662 8.11867 32.6211 7.84005 32.6212C7.27735 32.6213 6.73765 32.3978 6.3397 32C5.94174 31.6022 5.71812 31.0625 5.71802 30.4998C5.71793 29.9371 5.94137 29.3974 6.3392 28.9995L24.7542 10.5855" fill="white"/>
<path d="M30.0362 17L34.0362 13Z" fill="white"/>
<path d="M33.5362 13.5L31.6222 11.586C31.2471 11.211 31.0363 10.7024 31.0362 10.172V9.82801C31.0361 9.29762 30.8253 8.789 30.4502 8.41401L28.7932 6.75701C27.6683 5.63232 26.1429 5.00035 24.5522 5.00001H21.0362L22.2792 6.24301C23.4041 7.36813 24.0361 8.89398 24.0362 10.485V12L26.0362 14H27.2082C27.7386 14.0001 28.2472 14.2109 28.6222 14.586L30.5362 16.5" fill="white"/>
<path d="M27.7542 13.5855C27.7542 13.5855 9.53718 31.8024 9.3402 31.9995C9.14321 32.1965 8.90935 32.3529 8.65195 32.4595C8.39456 32.5662 8.11867 32.6211 7.84005 32.6212C7.27735 32.6213 6.73765 32.3978 6.3397 32C5.94174 31.6022 5.71812 31.0625 5.71802 30.4998C5.71793 29.9371 5.94137 29.3974 6.3392 28.9995L24.7542 10.5855M30.0362 17L34.0362 13M33.5362 13.5L31.6222 11.586C31.2471 11.211 31.0363 10.7024 31.0362 10.172V9.82801C31.0361 9.29762 30.8253 8.789 30.4502 8.41401L28.7932 6.75701C27.6683 5.63232 26.1429 5.00035 24.5522 5.00001H21.0362L22.2792 6.24301C23.4041 7.36813 24.0361 8.89398 24.0362 10.485V12L26.0362 14H27.2082C27.7386 14.0001 28.2472 14.2109 28.6222 14.586L30.5362 16.5" stroke="white" stroke-width="2" stroke-linecap="round" stroke-linejoin="round"/>
<path d="M5.30369 11.3037C5.49062 11.4869 5.74194 11.5896 6.00369 11.5896C6.26544 11.5896 6.51676 11.4869 6.70369 11.3037L8.30369 9.7037C8.48692 9.51678 8.58955 9.26546 8.58955 9.00371C8.58955 8.74195 8.48692 8.49063 8.30369 8.3037L5.19869 5.19771C4.87669 4.87771 4.97869 4.33469 5.41669 4.21469C6.51557 3.91256 7.67776 3.92963 8.76728 4.26392C9.85681 4.5982 10.8286 5.23589 11.5689 6.10232C12.3093 6.96876 12.7875 8.02812 12.9478 9.15645C13.108 10.2848 12.9435 11.4354 12.4737 12.4737C12.4737 12.4737 28.6028 28.6027 29.0005 29.0005C29.3982 29.3983 29.6216 29.9378 29.6215 30.5003C29.6214 31.0629 29.3978 31.6023 29 32C28.6022 32.3977 28.0627 32.6211 27.5002 32.621C26.9377 32.6209 26.3982 32.3973 26.0005 31.9995L9.47369 15.4727C8.4354 15.9426 7.28477 16.107 6.15644 15.9468C5.02811 15.7865 3.96874 15.3083 3.10231 14.5679C2.23587 13.8276 1.5982 12.8558 1.26392 11.7663C0.929633 10.6768 0.912558 9.51458 1.21469 8.41571C1.33469 7.97771 1.87669 7.87571 2.19869 8.19671L5.30369 11.3037Z" fill="white" stroke="white" stroke-width="2" stroke-linecap="round" stroke-linejoin="round"/>
</g>
<defs>
<clipPath id="clip0_1_2">
<rect width="35" height="35" fill="white"/>
</clipPath>
</defs>
</svg>
